<?xml version="1.0" standalone="no"?>
<svg viewBox="0 0 658 548.1" style="background-color:#EDEDF2" version="1.1" xmlns="http://www.w3.org/2000/svg" xmlns:xlink="http://www.w3.org/1999/xlink" xml:space="preserve" x="38px" y="38px" width="582" height="472.1">
<g transform="matrix(1, 0, 0, 1, 0, 0)"><path d="M 0,0 L 658,0 L 658,548.1 L 0,548.1 Z " stroke="none" fill="#EDEDF2"></path></g>
<g transform="matrix(1, 0, 0, 1, 0, 0)"><path d="M 180,284.1 C 200,284.1 217.5,270.48 233.77,250.04 C 250.03,229.6 265.06,202.35 280.12,175.1 C 295.19,147.85 310.28,120.6 326.67,100.16 C 343.06,79.73 360.75,66.1 381,66.1 L 539,66.1 " stroke="#E89969" fill="none" stroke-width="6" stroke-dasharray="" stroke-dashoffset="0" stroke-linecap="round"></path></g>
<g transform="matrix(1, 0, 0, 1, 0, 0)"><path d="M 180,284.1 C 200,284.1 217.5,297.66 233.77,318.01 C 250.03,338.35 265.06,365.48 280.12,392.6 C 295.19,419.73 310.28,446.85 326.67,467.19 C 343.06,487.54 360.75,501.1 381,501.1 L 525,501.1 " stroke="#7A5796" fill="none" stroke-width="6" stroke-dasharray="" stroke-dashoffset="0" stroke-linecap="round"></path></g>
<g transform="matrix(1, 0, 0, 1, 0, 0)"><path d="M 180,284.1 C 200,284.1 217.5,273.85 233.77,258.48 C 250.03,243.1 265.06,222.6 280.12,202.1 C 295.19,181.6 310.28,161.1 326.67,145.73 C 343.06,130.35 360.75,120.1 381,120.1 L 568,120.1 " stroke="#75A6D9" fill="none" stroke-width="6" stroke-dasharray="" stroke-dashoffset="0" stroke-linecap="round"></path></g>
<g transform="matrix(1, 0, 0, 1, 0, 0)"><path d="M 180,284.1 C 200,284.1 217.5,294.29 233.77,309.57 C 250.03,324.85 265.06,345.23 280.12,365.6 C 295.19,385.98 310.28,406.35 326.67,421.63 C 343.06,436.91 360.75,447.1 381,447.1 L 513,447.1 " stroke="#75A6D9" fill="none" stroke-width="6" stroke-dasharray="" stroke-dashoffset="0" stroke-linecap="round"></path></g>
<g transform="matrix(1, 0, 0, 1, 0, 0)"><path d="M 180,284.1 C 200,284.1 217.5,277.29 233.77,267.07 C 250.03,256.85 265.06,243.23 280.12,229.6 C 295.19,215.98 310.28,202.35 326.67,192.13 C 343.06,181.91 360.75,175.1 381,175.1 L 594,175.1 " stroke="#7A5796" fill="none" stroke-width="6" stroke-dasharray="" stroke-dashoffset="0" stroke-linecap="round"></path></g>
<g transform="matrix(1, 0, 0, 1, 0, 0)"><path d="M 180,284.1 C 200,284.1 217.5,290.85 233.77,300.98 C 250.03,311.1 265.06,324.6 280.12,338.1 C 295.19,351.6 310.28,365.1 326.67,375.23 C 343.06,385.35 360.75,392.1 381,392.1 L 508,392.1 " stroke="#E89969" fill="none" stroke-width="6" stroke-dasharray="" stroke-dashoffset="0" stroke-linecap="round"></path></g>
<g transform="matrix(1, 0, 0, 1, 0, 0)"><path d="M 180,284.1 C 200,284.1 217.5,280.66 233.77,275.51 C 250.03,270.35 265.06,263.48 280.12,256.6 C 295.19,249.73 310.28,242.85 326.67,237.69 C 343.06,232.54 360.75,229.1 381,229.1 L 518,229.1 " stroke="#F7D159" fill="none" stroke-width="6" stroke-dasharray="" stroke-dashoffset="0" stroke-linecap="round"></path></g>
<g transform="matrix(1, 0, 0, 1, 0, 0)"><path d="M 180,284.1 C 200,284.1 217.5,287.48 233.77,292.54 C 250.03,297.6 265.06,304.35 280.12,311.1 C 295.19,317.85 310.28,324.6 326.67,329.66 C 343.06,334.73 360.75,338.1 381,338.1 L 415,338.1 " stroke="#80C7C9" fill="none" stroke-width="6" stroke-dasharray="" stroke-dashoffset="0" stroke-linecap="round"></path></g>
<g transform="matrix(1, 0, 0, 1, 0, 0)"><path d="M 180,284.1 C 200,284.1 217.5,284.1 233.77,284.1 C 250.03,284.1 265.06,284.1 280.12,284.1 C 295.19,284.1 310.28,284.1 326.67,284.1 C 343.06,284.1 360.75,284.1 381,284.1 L 463,284.1 " stroke="#E0696E" fill="none" stroke-width="6" stroke-dasharray="" stroke-dashoffset="0" stroke-linecap="round"></path></g>
<g transform="matrix(1, 0, 0, 1, 0, 0)"><path d="M 321,283.6 L 321,302.1 C 321,307.62 316.52,312.1 311,312.1 L 48,312.1 C 42.48,312.1 38,307.62 38,302.1 L 38,265.1 C 38,259.58 42.48,255.1 48,255.1 L 311,255.1 C 316.52,255.1 321,259.58 321,265.1 Z " stroke="none" fill="#FFFFFF"></path><path d="M 321,283.6 L 321,302.1 C 321,307.62 316.52,312.1 311,312.1 L 48,312.1 C 42.48,312.1 38,307.62 38,302.1 L 38,265.1 C 38,259.58 42.48,255.1 48,255.1 L 311,255.1 C 316.52,255.1 321,259.58 321,265.1 Z " stroke="#FFFFFF" fill="none" stroke-width="7" stroke-dasharray="" stroke-dashoffset="0" stroke-linecap="round" stroke-linejoin="round" stroke-miterlimit="4"></path></g>
<g transform="matrix(1, 0, 0, 1, 0, 0)"><g transform="translate(57 292.1)"><text fill="#4B4B4B" x="5.27" y="0" font-family="Helvetica-Bold" font-size="24" font-weight="bold">ACTIVATED METHOD</text></g></g>
<g transform="matrix(1, 0, 0, 1, 0, 0)"><path d="M 538,66.1 L 553,66.1 " stroke="#E89969" fill="none" stroke-width="6" stroke-linecap="butt"></path></g>
<g transform="matrix(1, 0, 0, 1, 0, 0)"></g>
<g transform="matrix(1, 0, 0, 1, 0, 0)"><path d="M 549.16,71.95 C 552.38,75.72 558.07,76.17 561.85,72.94 C 565.62,69.72 566.07,64.03 562.84,60.25 C 559.62,56.48 553.93,56.03 550.15,59.26 C 549.8,59.56 549.46,59.9 549.16,60.25 L 543.76,66.1 Z M 549.16,71.95 " stroke="none" fill="#E89969"></path><path d="M 549.16,71.95 C 552.38,75.72 558.07,76.17 561.85,72.94 C 565.62,69.72 566.07,64.03 562.84,60.25 C 559.62,56.48 553.93,56.03 550.15,59.26 C 549.8,59.56 549.46,59.9 549.16,60.25 L 543.76,66.1 Z M 549.16,71.95 " stroke="#0000001A" fill="none" stroke-width="0.5" stroke-linecap="round"></path><path d="M 558.52,66.1 L 554.47,70.15 " stroke="#EDEDF2" fill="none" stroke-width="1.8" stroke-linecap="round"></path><path d="M 558.52,66.1 L 554.47,62.05 " stroke="#EDEDF2" fill="none" stroke-width="1.8" stroke-linecap="round"></path></g>
<g transform="matrix(1, 0, 0, 1, 0, 0)"><g transform="translate(388 59.1)"><text fill="#6D6D6D" x="5" y="0" font-family="Helvetica-Bold" font-size="20" font-weight="bold">ACTION ITEMS</text></g></g>
<g transform="matrix(1, 0, 0, 1, 0, 0)"><path d="M 567,120.1 L 582,120.1 " stroke="#75A6D9" fill="none" stroke-width="6" stroke-linecap="butt"></path></g>
<g transform="matrix(1, 0, 0, 1, 0, 0)"></g>
<g transform="matrix(1, 0, 0, 1, 0, 0)"><path d="M 578.16,125.95 C 581.38,129.72 587.07,130.17 590.85,126.94 C 594.62,123.72 595.07,118.03 591.84,114.25 C 588.62,110.48 582.93,110.03 579.15,113.26 C 578.8,113.56 578.46,113.9 578.16,114.25 L 572.76,120.1 Z M 578.16,125.95 " stroke="none" fill="#75A6D9"></path><path d="M 578.16,125.95 C 581.38,129.72 587.07,130.17 590.85,126.94 C 594.62,123.72 595.07,118.03 591.84,114.25 C 588.62,110.48 582.93,110.03 579.15,113.26 C 578.8,113.56 578.46,113.9 578.16,114.25 L 572.76,120.1 Z M 578.16,125.95 " stroke="#0000001A" fill="none" stroke-width="0.5" stroke-linecap="round"></path><path d="M 587.52,120.1 L 583.47,124.15 " stroke="#EDEDF2" fill="none" stroke-width="1.8" stroke-linecap="round"></path><path d="M 587.52,120.1 L 583.47,116.05 " stroke="#EDEDF2" fill="none" stroke-width="1.8" stroke-linecap="round"></path></g>
<g transform="matrix(1, 0, 0, 1, 0, 0)"><g transform="translate(388 113.1)"><text fill="#6D6D6D" x="5" y="0" font-family="Helvetica-Bold" font-size="20" font-weight="bold">COMMUNICATION</text></g></g>
<g transform="matrix(1, 0, 0, 1, 0, 0)"><path d="M 593,175.1 L 608,175.1 " stroke="#7A5796" fill="none" stroke-width="6" stroke-linecap="butt"></path></g>
<g transform="matrix(1, 0, 0, 1, 0, 0)"></g>
<g transform="matrix(1, 0, 0, 1, 0, 0)"><path d="M 604.16,180.95 C 607.38,184.72 613.07,185.17 616.85,181.94 C 620.62,178.72 621.07,173.03 617.84,169.25 C 614.62,165.48 608.93,165.03 605.15,168.26 C 604.8,168.56 604.46,168.9 604.16,169.25 L 598.76,175.1 Z M 604.16,180.95 " stroke="none" fill="#7A5796"></path><path d="M 604.16,180.95 C 607.38,184.72 613.07,185.17 616.85,181.94 C 620.62,178.72 621.07,173.03 617.84,169.25 C 614.62,165.48 608.93,165.03 605.15,168.26 C 604.8,168.56 604.46,168.9 604.16,169.25 L 598.76,175.1 Z M 604.16,180.95 " stroke="#0000001A" fill="none" stroke-width="0.5" stroke-linecap="round"></path><path d="M 613.52,175.1 L 609.47,179.15 " stroke="#EDEDF2" fill="none" stroke-width="1.8" stroke-linecap="round"></path><path d="M 613.52,175.1 L 609.47,171.05 " stroke="#EDEDF2" fill="none" stroke-width="1.8" stroke-linecap="round"></path></g>
<g transform="matrix(1, 0, 0, 1, 0, 0)"><g transform="translate(388 168.1)"><text fill="#6D6D6D" x="5" y="0" font-family="Helvetica-Bold" font-size="20" font-weight="bold">TIME MANAGEMENT</text></g></g>
<g transform="matrix(1, 0, 0, 1, 0, 0)"><path d="M 517,229.1 L 532,229.1 " stroke="#F7D159" fill="none" stroke-width="6" stroke-linecap="butt"></path></g>
<g transform="matrix(1, 0, 0, 1, 0, 0)"></g>
<g transform="matrix(1, 0, 0, 1, 0, 0)"><path d="M 528.16,234.95 C 531.38,238.72 537.07,239.17 540.85,235.94 C 544.62,232.72 545.07,227.03 541.84,223.25 C 538.62,219.48 532.93,219.03 529.15,222.26 C 528.8,222.56 528.46,222.9 528.16,223.25 L 522.76,229.1 Z M 528.16,234.95 " stroke="none" fill="#F7D159"></path><path d="M 528.16,234.95 C 531.38,238.72 537.07,239.17 540.85,235.94 C 544.62,232.72 545.07,227.03 541.84,223.25 C 538.62,219.48 532.93,219.03 529.15,222.26 C 528.8,222.56 528.46,222.9 528.16,223.25 L 522.76,229.1 Z M 528.16,234.95 " stroke="#0000001A" fill="none" stroke-width="0.5" stroke-linecap="round"></path><path d="M 537.52,229.1 L 533.47,233.15 " stroke="#EDEDF2" fill="none" stroke-width="1.8" stroke-linecap="round"></path><path d="M 537.52,229.1 L 533.47,225.05 " stroke="#EDEDF2" fill="none" stroke-width="1.8" stroke-linecap="round"></path></g>
<g transform="matrix(1, 0, 0, 1, 0, 0)"><g transform="translate(388 222.1)"><text fill="#6D6D6D" x="5" y="0" font-family="Helvetica-Bold" font-size="20" font-weight="bold">INNOVATION</text></g></g>
<g transform="matrix(1, 0, 0, 1, 0, 0)"><path d="M 462,284.1 L 477,284.1 " stroke="#E0696E" fill="none" stroke-width="6" stroke-linecap="butt"></path></g>
<g transform="matrix(1, 0, 0, 1, 0, 0)"></g>
<g transform="matrix(1, 0, 0, 1, 0, 0)"><path d="M 473.16,289.95 C 476.38,293.72 482.07,294.17 485.85,290.94 C 489.62,287.72 490.07,282.03 486.84,278.25 C 483.62,274.48 477.93,274.03 474.15,277.26 C 473.8,277.56 473.46,277.9 473.16,278.25 L 467.76,284.1 Z M 473.16,289.95 " stroke="none" fill="#E0696E"></path><path d="M 473.16,289.95 C 476.38,293.72 482.07,294.17 485.85,290.94 C 489.62,287.72 490.07,282.03 486.84,278.25 C 483.62,274.48 477.93,274.03 474.15,277.26 C 473.8,277.56 473.46,277.9 473.16,278.25 L 467.76,284.1 Z M 473.16,289.95 " stroke="#0000001A" fill="none" stroke-width="0.5" stroke-linecap="round"></path><path d="M 482.52,284.1 L 478.47,288.15 " stroke="#EDEDF2" fill="none" stroke-width="1.8" stroke-linecap="round"></path><path d="M 482.52,284.1 L 478.47,280.05 " stroke="#EDEDF2" fill="none" stroke-width="1.8" stroke-linecap="round"></path></g>
<g transform="matrix(1, 0, 0, 1, 0, 0)"><g transform="translate(388 277.1)"><text fill="#6D6D6D" x="5" y="0" font-family="Helvetica-Bold" font-size="20" font-weight="bold">VISION</text></g></g>
<g transform="matrix(1, 0, 0, 1, 0, 0)"><path d="M 414,338.1 L 429,338.1 " stroke="#80C7C9" fill="none" stroke-width="6" stroke-linecap="butt"></path></g>
<g transform="matrix(1, 0, 0, 1, 0, 0)"></g>
<g transform="matrix(1, 0, 0, 1, 0, 0)"><path d="M 425.16,343.95 C 428.38,347.72 434.07,348.17 437.85,344.94 C 441.62,341.72 442.07,336.03 438.84,332.25 C 435.62,328.48 429.93,328.03 426.15,331.26 C 425.8,331.56 425.46,331.9 425.16,332.25 L 419.76,338.1 Z M 425.16,343.95 " stroke="none" fill="#80C7C9"></path><path d="M 425.16,343.95 C 428.38,347.72 434.07,348.17 437.85,344.94 C 441.62,341.72 442.07,336.03 438.84,332.25 C 435.62,328.48 429.93,328.03 426.15,331.26 C 425.8,331.56 425.46,331.9 425.16,332.25 L 419.76,338.1 Z M 425.16,343.95 " stroke="#0000001A" fill="none" stroke-width="0.5" stroke-linecap="round"></path><path d="M 434.52,338.1 L 430.47,342.15 " stroke="#EDEDF2" fill="none" stroke-width="1.8" stroke-linecap="round"></path><path d="M 434.52,338.1 L 430.47,334.05 " stroke="#EDEDF2" fill="none" stroke-width="1.8" stroke-linecap="round"></path></g>
<g transform="matrix(1, 0, 0, 1, 0, 0)"><g transform="translate(388 331.1)"><text fill="#6D6D6D" x="5" y="0" font-family="Helvetica-Bold" font-size="20" font-weight="bold">AI</text></g></g>
<g transform="matrix(1, 0, 0, 1, 0, 0)"><path d="M 507,392.1 L 522,392.1 " stroke="#E89969" fill="none" stroke-width="6" stroke-linecap="butt"></path></g>
<g transform="matrix(1, 0, 0, 1, 0, 0)"></g>
<g transform="matrix(1, 0, 0, 1, 0, 0)"><path d="M 518.16,397.95 C 521.38,401.72 527.07,402.17 530.85,398.94 C 534.62,395.72 535.07,390.03 531.84,386.25 C 528.62,382.48 522.93,382.03 519.15,385.26 C 518.8,385.56 518.46,385.9 518.16,386.25 L 512.76,392.1 Z M 518.16,397.95 " stroke="none" fill="#E89969"></path><path d="M 518.16,397.95 C 521.38,401.72 527.07,402.17 530.85,398.94 C 534.62,395.72 535.07,390.03 531.84,386.25 C 528.62,382.48 522.93,382.03 519.15,385.26 C 518.8,385.56 518.46,385.9 518.16,386.25 L 512.76,392.1 Z M 518.16,397.95 " stroke="#0000001A" fill="none" stroke-width="0.5" stroke-linecap="round"></path><path d="M 527.52,392.1 L 523.47,396.15 " stroke="#EDEDF2" fill="none" stroke-width="1.8" stroke-linecap="round"></path><path d="M 527.52,392.1 L 523.47,388.05 " stroke="#EDEDF2" fill="none" stroke-width="1.8" stroke-linecap="round"></path></g>
<g transform="matrix(1, 0, 0, 1, 0, 0)"><g transform="translate(388 385.1)"><text fill="#6D6D6D" x="5" y="0" font-family="Helvetica-Bold" font-size="20" font-weight="bold">THOUGHTS</text></g></g>
<g transform="matrix(1, 0, 0, 1, 0, 0)"><path d="M 512,447.1 L 527,447.1 " stroke="#75A6D9" fill="none" stroke-width="6" stroke-linecap="butt"></path></g>
<g transform="matrix(1, 0, 0, 1, 0, 0)"></g>
<g transform="matrix(1, 0, 0, 1, 0, 0)"><path d="M 523.16,452.95 C 526.38,456.72 532.07,457.17 535.85,453.94 C 539.62,450.72 540.07,445.03 536.84,441.25 C 533.62,437.48 527.93,437.03 524.15,440.26 C 523.8,440.56 523.46,440.9 523.16,441.25 L 517.76,447.1 Z M 523.16,452.95 " stroke="none" fill="#75A6D9"></path><path d="M 523.16,452.95 C 526.38,456.72 532.07,457.17 535.85,453.94 C 539.62,450.72 540.07,445.03 536.84,441.25 C 533.62,437.48 527.93,437.03 524.15,440.26 C 523.8,440.56 523.46,440.9 523.16,441.25 L 517.76,447.1 Z M 523.16,452.95 " stroke="#0000001A" fill="none" stroke-width="0.5" stroke-linecap="round"></path><path d="M 532.52,447.1 L 528.47,451.15 " stroke="#EDEDF2" fill="none" stroke-width="1.8" stroke-linecap="round"></path><path d="M 532.52,447.1 L 528.47,443.05 " stroke="#EDEDF2" fill="none" stroke-width="1.8" stroke-linecap="round"></path></g>
<g transform="matrix(1, 0, 0, 1, 0, 0)"><g transform="translate(388 440.1)"><text fill="#6D6D6D" x="5" y="0" font-family="Helvetica-Bold" font-size="20" font-weight="bold">EDUCATION</text></g></g>
<g transform="matrix(1, 0, 0, 1, 0, 0)"><path d="M 524,501.1 L 539,501.1 " stroke="#7A5796" fill="none" stroke-width="6" stroke-linecap="butt"></path></g>
<g transform="matrix(1, 0, 0, 1, 0, 0)"></g>
<g transform="matrix(1, 0, 0, 1, 0, 0)"><path d="M 535.16,506.95 C 538.38,510.72 544.07,511.17 547.85,507.94 C 551.62,504.72 552.07,499.03 548.84,495.25 C 545.62,491.48 539.93,491.03 536.15,494.26 C 535.8,494.56 535.46,494.9 535.16,495.25 L 529.76,501.1 Z M 535.16,506.95 " stroke="none" fill="#7A5796"></path><path d="M 535.16,506.95 C 538.38,510.72 544.07,511.17 547.85,507.94 C 551.62,504.72 552.07,499.03 548.84,495.25 C 545.62,491.48 539.93,491.03 536.15,494.26 C 535.8,494.56 535.46,494.9 535.16,495.25 L 529.76,501.1 Z M 535.16,506.95 " stroke="#0000001A" fill="none" stroke-width="0.5" stroke-linecap="round"></path><path d="M 544.52,501.1 L 540.47,505.15 " stroke="#EDEDF2" fill="none" stroke-width="1.8" stroke-linecap="round"></path><path d="M 544.52,501.1 L 540.47,497.05 " stroke="#EDEDF2" fill="none" stroke-width="1.8" stroke-linecap="round"></path></g>
<g transform="matrix(1, 0, 0, 1, 0, 0)"><g transform="translate(388 494.1)"><text fill="#6D6D6D" x="5" y="0" font-family="Helvetica-Bold" font-size="20" font-weight="bold">DELEGATION</text></g></g>
<g transform="matrix(1, 0, 0, 1, 0, 0)"></g>
<g transform="matrix(1, 0, 0, 1, 0, 0)"></g>
</svg>