<?xml version="1.0" standalone="no"?>
<svg viewBox="0 0 1085 828" style="background-color:#EDEDF2" version="1.1" xmlns="http://www.w3.org/2000/svg" xmlns:xlink="http://www.w3.org/1999/xlink" xml:space="preserve" x="58px" y="58px" width="969" height="712">
<g transform="matrix(1, 0, 0, 1, 0, 0)"><path d="M 0,0 L 1085,0 L 1085,828 L 0,828 Z " stroke="none" fill="#EDEDF2"></path></g>
<g transform="matrix(1, 0, 0, 1, 0, 0)"><path d="M 516.5,87 L 516.5,135 Q 516.5,150 501.5,150 L 32.5,150 Q 17.5,150 17.5,165 L 17.5,203 Q 17.5,218 32.5,218 L 340.5,218 " stroke="#F7D159" fill="none" stroke-width="6" stroke-dasharray="" stroke-dashoffset="0" stroke-linecap="round"></path></g>
<g transform="matrix(1, 0, 0, 1, 0, 0)"><path d="M 57.5,218 L 47.75,218 Q 38,218 38,227.75 L 38,663 Q 38,678 53,678 L 183.5,678 " stroke="#F7D159" fill="none" stroke-width="5" stroke-dasharray="" stroke-dashoffset="0" stroke-linecap="round"></path></g>
<g transform="matrix(1, 0, 0, 1, 0, 0)"><path d="M 57.5,218 L 47.75,218 Q 38,218 38,227.75 L 38,617 Q 38,632 53,632 L 154.5,632 " stroke="#F7D159" fill="none" stroke-width="5" stroke-dasharray="" stroke-dashoffset="0" stroke-linecap="round"></path></g>
<g transform="matrix(1, 0, 0, 1, 0, 0)"><path d="M 426.5,218 L 416.25,218 Q 406,218 406,228.25 L 406,617 Q 406,632 421,632 L 509.5,632 " stroke="#E0696E" fill="none" stroke-width="5" stroke-dasharray="" stroke-dashoffset="0" stroke-linecap="round"></path></g>
<g transform="matrix(1, 0, 0, 1, 0, 0)"><path d="M 516.5,87 L 516.5,135 Q 516.5,150 531.5,150 L 834.5,150 Q 849.5,150 849.5,165 L 849.5,203 Q 849.5,218 864.5,218 L 975.5,218 " stroke="#5FDB7A" fill="none" stroke-width="6" stroke-dasharray="" stroke-dashoffset="0" stroke-linecap="round"></path></g>
<g transform="matrix(1, 0, 0, 1, 0, 0)"><path d="M 57.5,218 L 47.75,218 Q 38,218 38,227.75 L 38,571 Q 38,586 53,586 L 138.5,586 " stroke="#F7D159" fill="none" stroke-width="5" stroke-dasharray="" stroke-dashoffset="0" stroke-linecap="round"></path></g>
<g transform="matrix(1, 0, 0, 1, 0, 0)"><path d="M 57.5,218 L 47.75,218 Q 38,218 38,227.75 L 38,525 Q 38,540 53,540 L 170.5,540 " stroke="#F7D159" fill="none" stroke-width="5" stroke-dasharray="" stroke-dashoffset="0" stroke-linecap="round"></path></g>
<g transform="matrix(1, 0, 0, 1, 0, 0)"><path d="M 57.5,218 L 47.75,218 Q 38,218 38,227.75 L 38,479 Q 38,494 53,494 L 152.5,494 " stroke="#F7D159" fill="none" stroke-width="5" stroke-dasharray="" stroke-dashoffset="0" stroke-linecap="round"></path></g>
<g transform="matrix(1, 0, 0, 1, 0, 0)"><path d="M 57.5,218 L 47.75,218 Q 38,218 38,227.75 L 38,433 Q 38,448 53,448 L 154.5,448 " stroke="#F7D159" fill="none" stroke-width="5" stroke-dasharray="" stroke-dashoffset="0" stroke-linecap="round"></path></g>
<g transform="matrix(1, 0, 0, 1, 0, 0)"><path d="M 426.5,218 L 416.25,218 Q 406,218 406,228.25 L 406,433 Q 406,448 421,448 L 519.5,448 " stroke="#E0696E" fill="none" stroke-width="5" stroke-dasharray="" stroke-dashoffset="0" stroke-linecap="round"></path></g>
<g transform="matrix(1, 0, 0, 1, 0, 0)"><path d="M 57.5,218 L 47.75,218 Q 38,218 38,227.75 L 38,387 Q 38,402 53,402 L 226.5,402 " stroke="#F7D159" fill="none" stroke-width="5" stroke-dasharray="" stroke-dashoffset="0" stroke-linecap="round"></path></g>
<g transform="matrix(1, 0, 0, 1, 0, 0)"><path d="M 516.5,87 L 516.5,135 Q 516.5,150 531.5,150 L 589.5,150 Q 604.5,150 604.5,165 L 604.5,203 Q 604.5,218 619.5,218 L 769.5,218 " stroke="#75A6D9" fill="none" stroke-width="6" stroke-dasharray="" stroke-dashoffset="0" stroke-linecap="round"></path></g>
<g transform="matrix(1, 0, 0, 1, 0, 0)"><path d="M 516.5,87 L 516.5,135 Q 516.5,150 501.5,150 L 401.5,150 Q 386.5,150 386.5,165 L 386.5,203 Q 386.5,218 401.5,218 L 507.5,218 " stroke="#E0696E" fill="none" stroke-width="6" stroke-dasharray="" stroke-dashoffset="0" stroke-linecap="round"></path></g>
<g transform="matrix(1, 0, 0, 1, 0, 0)"><path d="M 57.5,218 L 47.75,218 Q 38,218 38,227.75 L 38,341 Q 38,356 53,356 L 182.5,356 " stroke="#F7D159" fill="none" stroke-width="5" stroke-dasharray="" stroke-dashoffset="0" stroke-linecap="round"></path></g>
<g transform="matrix(1, 0, 0, 1, 0, 0)"><path d="M 446.5,264 L 436.25,264 Q 426,264 426,274.25 L 426,387 Q 426,402 441,402 L 523.5,402 " stroke="#E0696E" fill="none" stroke-width="4" stroke-dasharray="" stroke-dashoffset="0" stroke-linecap="round"></path></g>
<g transform="matrix(1, 0, 0, 1, 0, 0)"><path d="M 446.5,448 L 436.25,448 Q 426,448 426,458.25 L 426,571 Q 426,586 441,586 L 545.5,586 " stroke="#E0696E" fill="none" stroke-width="4" stroke-dasharray="" stroke-dashoffset="0" stroke-linecap="round"></path></g>
<g transform="matrix(1, 0, 0, 1, 0, 0)"><path d="M 446.5,632 L 436.25,632 Q 426,632 426,642.25 L 426,755 Q 426,770 441,770 L 527.5,770 " stroke="#E0696E" fill="none" stroke-width="4" stroke-dasharray="" stroke-dashoffset="0" stroke-linecap="round"></path></g>
<g transform="matrix(1, 0, 0, 1, 0, 0)"><path d="M 644.5,218 L 634.25,218 Q 624,218 624,228.25 L 624,341 Q 624,356 639,356 L 804.5,356 " stroke="#75A6D9" fill="none" stroke-width="5" stroke-dasharray="" stroke-dashoffset="0" stroke-linecap="round"></path></g>
<g transform="matrix(1, 0, 0, 1, 0, 0)"><path d="M 889.5,218 L 879.25,218 Q 869,218 869,228.25 L 869,341 Q 869,356 884,356 L 1027.5,356 " stroke="#5FDB7A" fill="none" stroke-width="5" stroke-dasharray="" stroke-dashoffset="0" stroke-linecap="round"></path></g>
<g transform="matrix(1, 0, 0, 1, 0, 0)"><path d="M 57.5,218 L 47.75,218 Q 38,218 38,227.75 L 38,295 Q 38,310 53,310 L 125.5,310 " stroke="#F7D159" fill="none" stroke-width="5" stroke-dasharray="" stroke-dashoffset="0" stroke-linecap="round"></path></g>
<g transform="matrix(1, 0, 0, 1, 0, 0)"><path d="M 446.5,264 L 436.25,264 Q 426,264 426,274.25 L 426,341 Q 426,356 441,356 L 559.5,356 " stroke="#E0696E" fill="none" stroke-width="4" stroke-dasharray="" stroke-dashoffset="0" stroke-linecap="round"></path></g>
<g transform="matrix(1, 0, 0, 1, 0, 0)"><path d="M 446.5,448 L 436.25,448 Q 426,448 426,458.25 L 426,525 Q 426,540 441,540 L 521.5,540 " stroke="#E0696E" fill="none" stroke-width="4" stroke-dasharray="" stroke-dashoffset="0" stroke-linecap="round"></path></g>
<g transform="matrix(1, 0, 0, 1, 0, 0)"><path d="M 446.5,632 L 436.25,632 Q 426,632 426,642.25 L 426,709 Q 426,724 441,724 L 553.5,724 " stroke="#E0696E" fill="none" stroke-width="4" stroke-dasharray="" stroke-dashoffset="0" stroke-linecap="round"></path></g>
<g transform="matrix(1, 0, 0, 1, 0, 0)"><path d="M 644.5,218 L 634.25,218 Q 624,218 624,228.25 L 624,295 Q 624,310 639,310 L 730.5,310 " stroke="#75A6D9" fill="none" stroke-width="5" stroke-dasharray="" stroke-dashoffset="0" stroke-linecap="round"></path></g>
<g transform="matrix(1, 0, 0, 1, 0, 0)"><path d="M 889.5,218 L 879.25,218 Q 869,218 869,228.25 L 869,295 Q 869,310 884,310 L 1024.5,310 " stroke="#5FDB7A" fill="none" stroke-width="5" stroke-dasharray="" stroke-dashoffset="0" stroke-linecap="round"></path></g>
<g transform="matrix(1, 0, 0, 1, 0, 0)"><path d="M 57.5,218 L 47.75,218 Q 38,218 38,227.75 L 38,249 Q 38,264 53,264 L 197.5,264 " stroke="#F7D159" fill="none" stroke-width="5" stroke-dasharray="" stroke-dashoffset="0" stroke-linecap="round"></path></g>
<g transform="matrix(1, 0, 0, 1, 0, 0)"><path d="M 426.5,218 L 416.25,218 Q 406,218 406,228.25 L 406,249 Q 406,264 421,264 L 507.5,264 " stroke="#E0696E" fill="none" stroke-width="5" stroke-dasharray="" stroke-dashoffset="0" stroke-linecap="round"></path></g>
<g transform="matrix(1, 0, 0, 1, 0, 0)"><path d="M 446.5,264 L 436.25,264 Q 426,264 426,274.25 L 426,295 Q 426,310 441,310 L 531.5,310 " stroke="#E0696E" fill="none" stroke-width="4" stroke-dasharray="" stroke-dashoffset="0" stroke-linecap="round"></path></g>
<g transform="matrix(1, 0, 0, 1, 0, 0)"><path d="M 446.5,448 L 436.25,448 Q 426,448 426,458.25 L 426,479 Q 426,494 441,494 L 526.5,494 " stroke="#E0696E" fill="none" stroke-width="4" stroke-dasharray="" stroke-dashoffset="0" stroke-linecap="round"></path></g>
<g transform="matrix(1, 0, 0, 1, 0, 0)"><path d="M 446.5,632 L 436.25,632 Q 426,632 426,642.25 L 426,663 Q 426,678 441,678 L 535.5,678 " stroke="#E0696E" fill="none" stroke-width="4" stroke-dasharray="" stroke-dashoffset="0" stroke-linecap="round"></path></g>
<g transform="matrix(1, 0, 0, 1, 0, 0)"><path d="M 644.5,218 L 634.25,218 Q 624,218 624,228.25 L 624,249 Q 624,264 639,264 L 794.5,264 " stroke="#75A6D9" fill="none" stroke-width="5" stroke-dasharray="" stroke-dashoffset="0" stroke-linecap="round"></path></g>
<g transform="matrix(1, 0, 0, 1, 0, 0)"><path d="M 889.5,218 L 879.25,218 Q 869,218 869,228.25 L 869,249 Q 869,264 884,264 L 1025.5,264 " stroke="#5FDB7A" fill="none" stroke-width="5" stroke-dasharray="" stroke-dashoffset="0" stroke-linecap="round"></path></g>
<g transform="matrix(1, 0, 0, 1, 0, 0)"><path d="M 650.5,86.5 L 650.5,105 C 650.5,110.52 646.02,115 640.5,115 L 392.5,115 C 386.98,115 382.5,110.52 382.5,105 L 382.5,68 C 382.5,62.48 386.98,58 392.5,58 L 640.5,58 C 646.02,58 650.5,62.48 650.5,68 Z " stroke="none" fill="#FFFFFF"></path><path d="M 650.5,86.5 L 650.5,105 C 650.5,110.52 646.02,115 640.5,115 L 392.5,115 C 386.98,115 382.5,110.52 382.5,105 L 382.5,68 C 382.5,62.48 386.98,58 392.5,58 L 640.5,58 C 646.02,58 650.5,62.48 650.5,68 Z " stroke="#FFFFFF" fill="none" stroke-width="7" stroke-dasharray="" stroke-dashoffset="0" stroke-linecap="round" stroke-linejoin="round" stroke-miterlimit="4"></path></g>
<g transform="matrix(1, 0, 0, 1, 0, 0)"><g transform="translate(401.5 95)"><text fill="#4B4B4B" x="5.33" y="0" font-family="Helvetica-Bold" font-size="24" font-weight="bold">INFLUENCE CARDS</text></g></g>
<g transform="matrix(1, 0, 0, 1, 0, 0)"><g transform="translate(64.5 211)"><text fill="#6D6D6D" x="5" y="0" font-family="Helvetica-Bold" font-size="20" font-weight="bold">CONNECTION: </text><text fill="#6D6D6D" x="151.66" y="0" font-family="Helvetica" font-size="20">to a character</text></g></g>
<g transform="matrix(1, 0, 0, 1, 0, 0)"><g transform="translate(84.5 257)"><text fill="#6D6D6D" x="5" y="0" font-family="Helvetica" font-size="20">Origin Story</text></g></g>
<g transform="matrix(1, 0, 0, 1, 0, 0)"><g transform="translate(84.5 303)"><text fill="#6D6D6D" x="5" y="0" font-family="Helvetica" font-size="20">Lair</text></g></g>
<g transform="matrix(1, 0, 0, 1, 0, 0)"><g transform="translate(84.5 349)"><text fill="#6D6D6D" x="5" y="0" font-family="Helvetica" font-size="20">Kryptonite</text></g></g>
<g transform="matrix(1, 0, 0, 1, 0, 0)"><g transform="translate(84.5 395)"><text fill="#6D6D6D" x="5" y="0" font-family="Helvetica" font-size="20">Day in The Life</text></g></g>
<g transform="matrix(1, 0, 0, 1, 0, 0)"><g transform="translate(84.5 441)"><text fill="#6D6D6D" x="5" y="0" font-family="Helvetica" font-size="20">People</text></g></g>
<g transform="matrix(1, 0, 0, 1, 0, 0)"><g transform="translate(84.5 487)"><text fill="#6D6D6D" x="5" y="0" font-family="Helvetica" font-size="20">Places</text></g></g>
<g transform="matrix(1, 0, 0, 1, 0, 0)"><g transform="translate(84.5 533)"><text fill="#6D6D6D" x="5" y="0" font-family="Helvetica" font-size="20">Activities</text></g></g>
<g transform="matrix(1, 0, 0, 1, 0, 0)"><g transform="translate(84.5 579)"><text fill="#6D6D6D" x="5" y="0" font-family="Helvetica" font-size="20">Work</text></g></g>
<g transform="matrix(1, 0, 0, 1, 0, 0)"><g transform="translate(84.5 625)"><text fill="#6D6D6D" x="5" y="0" font-family="Helvetica" font-size="20">Project</text></g></g>
<g transform="matrix(1, 0, 0, 1, 0, 0)"><g transform="translate(84.5 671)"><text fill="#6D6D6D" x="5" y="0" font-family="Helvetica" font-size="20">Influences</text></g></g>
<g transform="matrix(1, 0, 0, 1, 0, 0)"><g transform="translate(433.5 211)"><text fill="#6D6D6D" x="5" y="0" font-family="Helvetica-Bold" font-size="20" font-weight="bold">VALUE</text></g></g>
<g transform="matrix(1, 0, 0, 1, 0, 0)"><g transform="translate(453.5 257)"><text fill="#6D6D6D" x="5" y="0" font-family="Helvetica-Bold" font-size="20" font-weight="bold">WHY</text></g></g>
<g transform="matrix(1, 0, 0, 1, 0, 0)"><g transform="translate(473.5 303)"><text fill="#6D6D6D" x="5" y="0" font-family="Helvetica" font-size="20">Stack</text></g></g>
<g transform="matrix(1, 0, 0, 1, 0, 0)"><g transform="translate(473.5 349)"><text fill="#6D6D6D" x="5" y="0" font-family="Helvetica" font-size="20">Mistakes</text></g></g>
<g transform="matrix(1, 0, 0, 1, 0, 0)"><g transform="translate(473.5 395)"><text fill="#6D6D6D" x="5" y="0" font-family="Helvetica" font-size="20">Rant</text></g></g>
<g transform="matrix(1, 0, 0, 1, 0, 0)"><g transform="translate(453.5 441)"><text fill="#6D6D6D" x="5" y="0" font-family="Helvetica-Bold" font-size="20" font-weight="bold">WHAT</text></g></g>
<g transform="matrix(1, 0, 0, 1, 0, 0)"><g transform="translate(473.5 487)"><text fill="#6D6D6D" x="5" y="0" font-family="Helvetica" font-size="20">Point</text></g></g>
<g transform="matrix(1, 0, 0, 1, 0, 0)"><g transform="translate(473.5 533)"><text fill="#6D6D6D" x="5" y="0" font-family="Helvetica" font-size="20">FAQ</text></g></g>
<g transform="matrix(1, 0, 0, 1, 0, 0)"><g transform="translate(473.5 579)"><text fill="#6D6D6D" x="5" y="0" font-family="Helvetica" font-size="20">Lesson</text></g></g>
<g transform="matrix(1, 0, 0, 1, 0, 0)"><g transform="translate(453.5 625)"><text fill="#6D6D6D" x="5" y="0" font-family="Helvetica-Bold" font-size="20" font-weight="bold">HOW</text></g></g>
<g transform="matrix(1, 0, 0, 1, 0, 0)"><g transform="translate(473.5 671)"><text fill="#6D6D6D" x="5" y="0" font-family="Helvetica" font-size="20">Model</text></g></g>
<g transform="matrix(1, 0, 0, 1, 0, 0)"><g transform="translate(473.5 717)"><text fill="#6D6D6D" x="5" y="0" font-family="Helvetica" font-size="20">Process</text></g></g>
<g transform="matrix(1, 0, 0, 1, 0, 0)"><g transform="translate(473.5 763)"><text fill="#6D6D6D" x="5" y="0" font-family="Helvetica" font-size="20">Story</text></g></g>
<g transform="matrix(1, 0, 0, 1, 0, 0)"><g transform="translate(651.5 211)"><text fill="#6D6D6D" x="5" y="0" font-family="Helvetica-Bold" font-size="20" font-weight="bold">INVITATION</text></g></g>
<g transform="matrix(1, 0, 0, 1, 0, 0)"><g transform="translate(671.5 257)"><text fill="#6D6D6D" x="5" y="0" font-family="Helvetica" font-size="20">MicroMagnet</text></g></g>
<g transform="matrix(1, 0, 0, 1, 0, 0)"><g transform="translate(671.5 303)"><text fill="#6D6D6D" x="5" y="0" font-family="Helvetica" font-size="20">Event</text></g></g>
<g transform="matrix(1, 0, 0, 1, 0, 0)"><g transform="translate(671.5 349)"><text fill="#6D6D6D" x="5" y="0" font-family="Helvetica" font-size="20">Work With Me</text></g></g>
<g transform="matrix(1, 0, 0, 1, 0, 0)"><g transform="translate(896.5 211)"><text fill="#6D6D6D" x="5" y="0" font-family="Helvetica-Bold" font-size="20" font-weight="bold">PROOF</text></g></g>
<g transform="matrix(1, 0, 0, 1, 0, 0)"><g transform="translate(916.5 257)"><text fill="#6D6D6D" x="5" y="0" font-family="Helvetica" font-size="20">Screenshot</text></g></g>
<g transform="matrix(1, 0, 0, 1, 0, 0)"><g transform="translate(916.5 303)"><text fill="#6D6D6D" x="5" y="0" font-family="Helvetica" font-size="20">Testimonial</text></g></g>
<g transform="matrix(1, 0, 0, 1, 0, 0)"><g transform="translate(916.5 349)"><text fill="#6D6D6D" x="5" y="0" font-family="Helvetica" font-size="20">Case Study</text></g></g>
<g transform="matrix(1, 0, 0, 1, 0, 0)"></g>
<g transform="matrix(1, 0, 0, 1, 0, 0)"></g>
</svg>