<?xml version="1.0" standalone="no"?>
<svg viewBox="0 0 1237 784.4" style="background-color:#FAFAFF" version="1.1" xmlns="http://www.w3.org/2000/svg" xmlns:xlink="http://www.w3.org/1999/xlink" xml:space="preserve" x="55px" y="55px" width="1127" height="674.4">
<g transform="matrix(1, 0, 0, 1, 0, 0)"><path d="M 0,0 L 1237,0 L 1237,784.4 L 0,784.4 Z " stroke="none" fill="#FAFAFF"></path></g>
<g transform="matrix(1, 0, 0, 1, 0, 0)"><path d="M 170,409.2 L 308.5,409.2 Q 316,409.2 316,401.7 L 316,241.7 Q 316,234.2 323.5,234.2 L 346,234.2 " stroke="#E65457" fill="none" stroke-width="6" stroke-dasharray="" stroke-dashoffset="0" stroke-linecap="round"></path></g>
<g transform="matrix(1, 0, 0, 1, 0, 0)"><path d="M 170,409.2 L 308.5,409.2 Q 316,409.2 316,416.7 L 316,576.7 Q 316,584.2 323.5,584.2 L 346,584.2 " stroke="#ABD1ED" fill="none" stroke-width="6" stroke-dasharray="" stroke-dashoffset="0" stroke-linecap="round"></path></g>
<g transform="matrix(1, 0, 0, 1, 0, 0)"><path d="M 486,234.2 L 508.5,234.2 Q 516,234.2 516,226.7 L 516,154.7 Q 516,147.2 523.5,147.2 L 844,147.2 " stroke="#E65457" fill="none" stroke-width="5" stroke-dasharray="" stroke-dashoffset="0" stroke-linecap="round"></path></g>
<g transform="matrix(1, 0, 0, 1, 0, 0)"><path d="M 486,234.2 L 508.5,234.2 Q 516,234.2 516,241.7 L 516,313.7 Q 516,321.2 523.5,321.2 L 799,321.2 " stroke="#E65457" fill="none" stroke-width="5" stroke-dasharray="" stroke-dashoffset="0" stroke-linecap="round"></path></g>
<g transform="matrix(1, 0, 0, 1, 0, 0)"><path d="M 553,584.2 L 575.5,584.2 Q 583,584.2 583,576.7 L 583,504.7 Q 583,497.2 590.5,497.2 L 872,497.2 " stroke="#ABD1ED" fill="none" stroke-width="5" stroke-dasharray="" stroke-dashoffset="0" stroke-linecap="round"></path></g>
<g transform="matrix(1, 0, 0, 1, 0, 0)"><path d="M 553,584.2 L 575.5,584.2 Q 583,584.2 583,591.7 L 583,663.7 Q 583,671.2 590.5,671.2 L 888,671.2 " stroke="#ABD1ED" fill="none" stroke-width="5" stroke-dasharray="" stroke-dashoffset="0" stroke-linecap="round"></path></g>
<g transform="matrix(1, 0, 0, 1, 0, 0)"><path d="M 844,147.2 L 866.5,147.2 Q 874,147.2 874,139.7 L 874,96.7 Q 874,89.2 881.5,89.2 L 1157,89.2 " stroke="#E65457" fill="none" stroke-width="4" stroke-dasharray="" stroke-dashoffset="0" stroke-linecap="round"></path></g>
<g transform="matrix(1, 0, 0, 1, 0, 0)"><path d="M 844,147.2 L 866.5,147.2 Q 874,147.2 874,154.7 L 874,197.7 Q 874,205.2 881.5,205.2 L 1120,205.2 " stroke="#E65457" fill="none" stroke-width="4" stroke-dasharray="" stroke-dashoffset="0" stroke-linecap="round"></path></g>
<g transform="matrix(1, 0, 0, 1, 0, 0)"><path d="M 799,321.2 L 821.5,321.2 Q 829,321.2 829,313.7 L 829,270.7 Q 829,263.2 836.5,263.2 L 1079,263.2 " stroke="#E65457" fill="none" stroke-width="4" stroke-dasharray="" stroke-dashoffset="0" stroke-linecap="round"></path></g>
<g transform="matrix(1, 0, 0, 1, 0, 0)"><path d="M 799,321.2 L 821.5,321.2 Q 829,321.2 829,328.7 L 829,371.7 Q 829,379.2 836.5,379.2 L 971,379.2 " stroke="#E65457" fill="none" stroke-width="4" stroke-dasharray="" stroke-dashoffset="0" stroke-linecap="round"></path></g>
<g transform="matrix(1, 0, 0, 1, 0, 0)"><path d="M 872,497.2 L 894.5,497.2 Q 902,497.2 902,489.7 L 902,446.7 Q 902,439.2 909.5,439.2 L 1066,439.2 " stroke="#ABD1ED" fill="none" stroke-width="4" stroke-dasharray="" stroke-dashoffset="0" stroke-linecap="round"></path></g>
<g transform="matrix(1, 0, 0, 1, 0, 0)"><path d="M 872,497.2 L 894.5,497.2 Q 902,497.2 902,504.7 L 902,547.7 Q 902,555.2 909.5,555.2 L 1182,555.2 " stroke="#ABD1ED" fill="none" stroke-width="4" stroke-dasharray="" stroke-dashoffset="0" stroke-linecap="round"></path></g>
<g transform="matrix(1, 0, 0, 1, 0, 0)"><path d="M 888,671.2 L 910.5,671.2 Q 918,671.2 918,663.7 L 918,620.7 Q 918,613.2 925.5,613.2 L 1096,613.2 " stroke="#ABD1ED" fill="none" stroke-width="4" stroke-dasharray="" stroke-dashoffset="0" stroke-linecap="round"></path></g>
<g transform="matrix(1, 0, 0, 1, 0, 0)"><path d="M 888,671.2 L 910.5,671.2 Q 918,671.2 918,678.7 L 918,721.7 Q 918,729.2 925.5,729.2 L 1128,729.2 " stroke="#ABD1ED" fill="none" stroke-width="4" stroke-dasharray="" stroke-dashoffset="0" stroke-linecap="round"></path></g>
<g transform="matrix(1, 0, 0, 1, 0, 0)"><path d="M 844,147.2 L 874,147.2 Q 874,147.2 874,147.2 L 874,147.2 Q 874,147.2 874,147.2 L 976,147.2 " stroke="#E65457" fill="none" stroke-width="4" stroke-dasharray="" stroke-dashoffset="0" stroke-linecap="round"></path></g>
<g transform="matrix(1, 0, 0, 1, 0, 0)"><path d="M 799,321.2 L 829,321.2 Q 829,321.2 829,321.2 L 829,321.2 Q 829,321.2 829,321.2 L 1057,321.2 " stroke="#E65457" fill="none" stroke-width="4" stroke-dasharray="" stroke-dashoffset="0" stroke-linecap="round"></path></g>
<g transform="matrix(1, 0, 0, 1, 0, 0)"><path d="M 872,497.2 L 902,497.2 Q 902,497.2 902,497.2 L 902,497.2 Q 902,497.2 902,497.2 L 1107,497.2 " stroke="#ABD1ED" fill="none" stroke-width="4" stroke-dasharray="" stroke-dashoffset="0" stroke-linecap="round"></path></g>
<g transform="matrix(1, 0, 0, 1, 0, 0)"><path d="M 888,671.2 L 918,671.2 Q 918,671.2 918,671.2 L 918,671.2 Q 918,671.2 918,671.2 L 1082,671.2 " stroke="#ABD1ED" fill="none" stroke-width="4" stroke-dasharray="" stroke-dashoffset="0" stroke-linecap="round"></path></g>
<g transform="matrix(1, 0, 0, 1, 0, 0)"><path d="M 286,409.2 L 286,476.2 C 286,481.72 281.52,486.2 276,486.2 L 65,486.2 C 59.48,486.2 55,481.72 55,476.2 L 55,342.2 C 55,336.68 59.48,332.2 65,332.2 L 276,332.2 C 281.52,332.2 286,336.68 286,342.2 Z " stroke="none" fill="#000000"></path><path d="M 286,409.2 L 286,476.2 C 286,481.72 281.52,486.2 276,486.2 L 65,486.2 C 59.48,486.2 55,481.72 55,476.2 L 55,342.2 C 55,336.68 59.48,332.2 65,332.2 L 276,332.2 C 281.52,332.2 286,336.68 286,342.2 Z " stroke="#000000" fill="none" stroke-width="7" stroke-dasharray="" stroke-dashoffset="0" stroke-linecap="round" stroke-linejoin="round" stroke-miterlimit="4"></path></g>
<g transform="matrix(1, 0, 0, 1, 0, 0)"><g transform="translate(74 380.2)"><text fill="#FFFFFF" x="66.5" y="0" font-family="Helvetica-Bold" font-size="35" font-weight="bold">THE </text><text fill="#FFFFFF" x="34.42" y="42" font-family="Helvetica-Bold" font-size="35" font-weight="bold">MIDDLE </text><text fill="#FFFFFF" x="25.67" y="84" font-family="Helvetica-Bold" font-size="35" font-weight="bold">METHOD</text></g></g>
<g transform="matrix(1, 0, 0, 1, 0, 0)"><path d="M 486,234.2 L 486,253.2 C 486,258.72 481.52,263.2 476,263.2 L 356,263.2 C 350.48,263.2 346,258.72 346,253.2 L 346,215.2 C 346,209.68 350.48,205.2 356,205.2 L 476,205.2 C 481.52,205.2 486,209.68 486,215.2 Z " stroke="none" fill="#E65457"></path><path d="M 486,234.2 L 486,253.2 C 486,258.72 481.52,263.2 476,263.2 L 356,263.2 C 350.48,263.2 346,258.72 346,253.2 L 346,215.2 C 346,209.68 350.48,205.2 356,205.2 L 476,205.2 C 481.52,205.2 486,209.68 486,215.2 Z " stroke="#E65457" fill="none" stroke-width="6" stroke-dasharray="" stroke-dashoffset="0" stroke-linecap="round" stroke-linejoin="round" stroke-miterlimit="4"></path></g>
<g transform="matrix(1, 0, 0, 1, 0, 0)"><g transform="translate(365 243.2)"><text fill="#000000" x="5" y="0" font-family="Helvetica-Bold" font-size="25" font-weight="bold">CYCLES</text></g></g>
<g transform="matrix(1, 0, 0, 1, 0, 0)"><g transform="translate(553 138.2)"><text fill="#171736" x="5" y="0" font-family="ProximaNova-Black" font-size="25" font-weight="bold">what needs to get done?</text></g></g>
<g transform="matrix(1, 0, 0, 1, 0, 0)"><g transform="translate(911 82.2)"><text fill="#595959" x="5" y="0" font-family="ProximaNova-Semibold" font-size="25" font-weight="bold">cycle rock dashboard</text></g></g>
<g transform="matrix(1, 0, 0, 1, 0, 0)"><g transform="translate(911 140.2)"><text fill="#595959" x="5" y="0" font-family="ProximaNova-Semibold" font-size="25" font-weight="bold">3 6 5</text></g></g>
<g transform="matrix(1, 0, 0, 1, 0, 0)"><g transform="translate(911 198.2)"><text fill="#595959" x="5" y="0" font-family="ProximaNova-Semibold" font-size="25" font-weight="bold">weekly 3 // daily 3</text></g></g>
<g transform="matrix(1, 0, 0, 1, 0, 0)"><g transform="translate(553 312.2)"><text fill="#171736" x="5" y="0" font-family="ProximaNova-Black" font-size="25" font-weight="bold">how will it get done?</text></g></g>
<g transform="matrix(1, 0, 0, 1, 0, 0)"><g transform="translate(866 256.2)"><text fill="#595959" x="5" y="0" font-family="ProximaNova-Semibold" font-size="25" font-weight="bold">effective meetings</text></g></g>
<g transform="matrix(1, 0, 0, 1, 0, 0)"><g transform="translate(866 314.2)"><text fill="#595959" x="5" y="0" font-family="ProximaNova-Semibold" font-size="25" font-weight="bold">project manager</text></g></g>
<g transform="matrix(1, 0, 0, 1, 0, 0)"><g transform="translate(866 372.2)"><text fill="#595959" x="5" y="0" font-family="ProximaNova-Semibold" font-size="25" font-weight="bold">ideas list</text></g></g>
<g transform="matrix(1, 0, 0, 1, 0, 0)"><path d="M 553,584.2 L 553,603.2 C 553,608.72 548.52,613.2 543,613.2 L 356,613.2 C 350.48,613.2 346,608.72 346,603.2 L 346,565.2 C 346,559.68 350.48,555.2 356,555.2 L 543,555.2 C 548.52,555.2 553,559.68 553,565.2 Z " stroke="none" fill="#ABD1ED"></path><path d="M 553,584.2 L 553,603.2 C 553,608.72 548.52,613.2 543,613.2 L 356,613.2 C 350.48,613.2 346,608.72 346,603.2 L 346,565.2 C 346,559.68 350.48,555.2 356,555.2 L 543,555.2 C 548.52,555.2 553,559.68 553,565.2 Z " stroke="#ABD1ED" fill="none" stroke-width="6" stroke-dasharray="" stroke-dashoffset="0" stroke-linecap="round" stroke-linejoin="round" stroke-miterlimit="4"></path></g>
<g transform="matrix(1, 0, 0, 1, 0, 0)"><g transform="translate(365 593.2)"><text fill="#000000" x="5" y="0" font-family="Helvetica-Bold" font-size="25" font-weight="bold">COOLDOWNS</text></g></g>
<g transform="matrix(1, 0, 0, 1, 0, 0)"><g transform="translate(620 488.2)"><text fill="#171736" x="5" y="0" font-family="ProximaNova-Black" font-size="25" font-weight="bold">review the past cycle</text></g></g>
<g transform="matrix(1, 0, 0, 1, 0, 0)"><g transform="translate(939 432.2)"><text fill="#595959" x="5" y="0" font-family="ProximaNova-Semibold" font-size="25" font-weight="bold">heartbeats</text></g></g>
<g transform="matrix(1, 0, 0, 1, 0, 0)"><g transform="translate(939 490.2)"><text fill="#595959" x="5" y="0" font-family="ProximaNova-Semibold" font-size="25" font-weight="bold">1-1 evaluations</text></g></g>
<g transform="matrix(1, 0, 0, 1, 0, 0)"><g transform="translate(939 548.2)"><text fill="#595959" x="5" y="0" font-family="ProximaNova-Semibold" font-size="25" font-weight="bold">mission metrics audit</text></g></g>
<g transform="matrix(1, 0, 0, 1, 0, 0)"><g transform="translate(620 662.2)"><text fill="#171736" x="5" y="0" font-family="ProximaNova-Black" font-size="25" font-weight="bold">preview the next cycle</text></g></g>
<g transform="matrix(1, 0, 0, 1, 0, 0)"><g transform="translate(955 606.2)"><text fill="#595959" x="5" y="0" font-family="ProximaNova-Semibold" font-size="25" font-weight="bold">growth plan</text></g></g>
<g transform="matrix(1, 0, 0, 1, 0, 0)"><g transform="translate(955 664.2)"><text fill="#595959" x="5" y="0" font-family="ProximaNova-Semibold" font-size="25" font-weight="bold">3 6 5 audit</text></g></g>
<g transform="matrix(1, 0, 0, 1, 0, 0)"><g transform="translate(955 722.2)"><text fill="#595959" x="5" y="0" font-family="ProximaNova-Semibold" font-size="25" font-weight="bold">meetings audit</text></g></g>
<g transform="matrix(1, 0, 0, 1, 0, 0)"></g>
<g transform="matrix(1, 0, 0, 1, 0, 0)"></g>
</svg>