<?xml version="1.0" standalone="no"?>
<svg viewBox="0 0 1154 1354.6" style="background-color:#F2F2F2" version="1.1" xmlns="http://www.w3.org/2000/svg" xmlns:xlink="http://www.w3.org/1999/xlink" xml:space="preserve" x="80px" y="80px" width="994" height="1194.6">
<g transform="matrix(1, 0, 0, 1, 0, 0)"><path d="M 0,0 L 1154,0 L 1154,1354.6 L 0,1354.6 Z " stroke="none" fill="#F2F2F2"></path></g>
<g transform="matrix(1, 0, 0, 1, 0, 0)"><path d="M 261,677.3 C 280.2,677.3 297.52,657.66 313.71,626.24 C 329.9,594.81 344.97,551.6 359.66,504.47 C 374.34,457.33 388.66,406.27 403.34,359.13 C 418.03,312 433.1,268.79 449.29,237.36 C 465.48,205.94 482.8,186.3 502,186.3 " stroke="#EDB8D1" fill="none" stroke-width="6" stroke-dasharray="" stroke-dashoffset="0" stroke-linecap="round"></path></g>
<g transform="matrix(1, 0, 0, 1, 0, 0)"><path d="M 261,677.3 C 280.2,677.3 297.52,696.94 313.71,728.36 C 329.9,759.79 344.97,803 359.66,850.13 C 374.34,897.27 388.66,948.33 403.34,995.47 C 418.03,1042.6 433.1,1085.81 449.29,1117.24 C 465.48,1148.66 482.8,1168.3 502,1168.3 " stroke="#F7D17D" fill="none" stroke-width="6" stroke-dasharray="" stroke-dashoffset="0" stroke-linecap="round"></path></g>
<g transform="matrix(1, 0, 0, 1, 0, 0)"><path d="M 261,677.3 C 280.2,677.3 297.52,667.5 313.71,651.82 C 329.9,636.14 344.97,614.58 359.66,591.06 C 374.34,567.54 388.66,542.06 403.34,518.54 C 418.03,495.02 433.1,473.46 449.29,457.78 C 465.48,442.1 482.8,432.3 502,432.3 " stroke="#B5B3D6" fill="none" stroke-width="6" stroke-dasharray="" stroke-dashoffset="0" stroke-linecap="round"></path></g>
<g transform="matrix(1, 0, 0, 1, 0, 0)"><path d="M 261,677.3 C 280.2,677.3 297.52,687.1 313.71,702.78 C 329.9,718.46 344.97,740.02 359.66,763.54 C 374.34,787.06 388.66,812.54 403.34,836.06 C 418.03,859.58 433.1,881.14 449.29,896.82 C 465.48,912.5 482.8,922.3 502,922.3 " stroke="#E89161" fill="none" stroke-width="6" stroke-dasharray="" stroke-dashoffset="0" stroke-linecap="round"></path></g>
<g transform="matrix(1, 0, 0, 1, 0, 0)"><path d="M 261,677.3 C 280.2,677.3 297.52,677.3 313.71,677.3 C 329.9,677.3 344.97,677.3 359.66,677.3 C 374.34,677.3 388.66,677.3 403.34,677.3 C 418.03,677.3 433.1,677.3 449.29,677.3 C 465.48,677.3 482.8,677.3 502,677.3 " stroke="#6BBFC4" fill="none" stroke-width="6" stroke-dasharray="" stroke-dashoffset="0" stroke-linecap="round"></path></g>
<g transform="matrix(1, 0, 0, 1, 0, 0)"><path d="M 715,186.3 C 719.8,186.3 724.12,183.06 728.15,177.88 C 732.18,172.69 735.93,165.56 739.58,157.79 C 743.22,150.01 746.78,141.59 750.42,133.81 C 754.07,126.04 757.82,118.91 761.85,113.72 C 765.88,108.54 770.2,105.3 775,105.3 " stroke="#EDB8D1" fill="none" stroke-width="5" stroke-dasharray="" stroke-dashoffset="0" stroke-linecap="round"></path></g>
<g transform="matrix(1, 0, 0, 1, 0, 0)"><path d="M 715,186.3 C 719.8,186.3 724.12,189.54 728.15,194.72 C 732.18,199.91 735.93,207.04 739.58,214.81 C 743.22,222.59 746.78,231.01 750.42,238.79 C 754.07,246.56 757.82,253.69 761.85,258.88 C 765.88,264.06 770.2,267.3 775,267.3 " stroke="#EDB8D1" fill="none" stroke-width="5" stroke-dasharray="" stroke-dashoffset="0" stroke-linecap="round"></path></g>
<g transform="matrix(1, 0, 0, 1, 0, 0)"><path d="M 693,432.3 C 697.8,432.3 702.12,429.06 706.15,423.88 C 710.18,418.69 713.93,411.56 717.58,403.79 C 721.22,396.01 724.78,387.59 728.42,379.81 C 732.07,372.04 735.82,364.91 739.85,359.72 C 743.88,354.54 748.2,351.3 753,351.3 " stroke="#B5B3D6" fill="none" stroke-width="5" stroke-dasharray="" stroke-dashoffset="0" stroke-linecap="round"></path></g>
<g transform="matrix(1, 0, 0, 1, 0, 0)"><path d="M 693,432.3 C 697.8,432.3 702.12,435.54 706.15,440.72 C 710.18,445.91 713.93,453.04 717.58,460.81 C 721.22,468.59 724.78,477.01 728.42,484.79 C 732.07,492.56 735.82,499.69 739.85,504.88 C 743.88,510.06 748.2,513.3 753,513.3 " stroke="#B5B3D6" fill="none" stroke-width="5" stroke-dasharray="" stroke-dashoffset="0" stroke-linecap="round"></path></g>
<g transform="matrix(1, 0, 0, 1, 0, 0)"><path d="M 710,677.3 C 714.8,677.3 719.12,674.06 723.15,668.88 C 727.18,663.69 730.93,656.56 734.58,648.79 C 738.22,641.01 741.78,632.59 745.42,624.81 C 749.07,617.04 752.82,609.91 756.85,604.72 C 760.88,599.54 765.2,596.3 770,596.3 " stroke="#6BBFC4" fill="none" stroke-width="5" stroke-dasharray="" stroke-dashoffset="0" stroke-linecap="round"></path></g>
<g transform="matrix(1, 0, 0, 1, 0, 0)"><path d="M 710,677.3 C 714.8,677.3 719.12,680.54 723.15,685.72 C 727.18,690.91 730.93,698.04 734.58,705.81 C 738.22,713.59 741.78,722.01 745.42,729.79 C 749.07,737.56 752.82,744.69 756.85,749.88 C 760.88,755.06 765.2,758.3 770,758.3 " stroke="#6BBFC4" fill="none" stroke-width="5" stroke-dasharray="" stroke-dashoffset="0" stroke-linecap="round"></path></g>
<g transform="matrix(1, 0, 0, 1, 0, 0)"><path d="M 732,922.3 C 736.8,922.3 741.12,919.06 745.15,913.88 C 749.18,908.69 752.93,901.56 756.58,893.79 C 760.22,886.01 763.78,877.59 767.42,869.81 C 771.07,862.04 774.82,854.91 778.85,849.72 C 782.88,844.54 787.2,841.3 792,841.3 " stroke="#E89161" fill="none" stroke-width="5" stroke-dasharray="" stroke-dashoffset="0" stroke-linecap="round"></path></g>
<g transform="matrix(1, 0, 0, 1, 0, 0)"><path d="M 732,922.3 C 736.8,922.3 741.12,925.54 745.15,930.72 C 749.18,935.91 752.93,943.04 756.58,950.81 C 760.22,958.59 763.78,967.01 767.42,974.79 C 771.07,982.56 774.82,989.69 778.85,994.88 C 782.88,1000.06 787.2,1003.3 792,1003.3 " stroke="#E89161" fill="none" stroke-width="5" stroke-dasharray="" stroke-dashoffset="0" stroke-linecap="round"></path></g>
<g transform="matrix(1, 0, 0, 1, 0, 0)"><path d="M 709,1168.3 C 713.8,1168.3 718.12,1165.06 722.15,1159.88 C 726.18,1154.69 729.93,1147.56 733.58,1139.79 C 737.22,1132.01 740.78,1123.59 744.42,1115.81 C 748.07,1108.04 751.82,1100.91 755.85,1095.72 C 759.88,1090.54 764.2,1087.3 769,1087.3 " stroke="#F7D17D" fill="none" stroke-width="5" stroke-dasharray="" stroke-dashoffset="0" stroke-linecap="round"></path></g>
<g transform="matrix(1, 0, 0, 1, 0, 0)"><path d="M 709,1168.3 C 713.8,1168.3 718.12,1171.54 722.15,1176.72 C 726.18,1181.91 729.93,1189.04 733.58,1196.81 C 737.22,1204.59 740.78,1213.01 744.42,1220.79 C 748.07,1228.56 751.82,1235.69 755.85,1240.88 C 759.88,1246.06 764.2,1249.3 769,1249.3 " stroke="#F7D17D" fill="none" stroke-width="5" stroke-dasharray="" stroke-dashoffset="0" stroke-linecap="round"></path></g>
<g transform="matrix(1, 0, 0, 1, 0, 0)"><path d="M 715,186.3 C 719.8,186.3 724.12,186.3 728.15,186.3 C 732.18,186.3 735.93,186.3 739.58,186.3 C 743.22,186.3 746.78,186.3 750.42,186.3 C 754.07,186.3 757.82,186.3 761.85,186.3 C 765.88,186.3 770.2,186.3 775,186.3 " stroke="#EDB8D1" fill="none" stroke-width="5" stroke-dasharray="" stroke-dashoffset="0" stroke-linecap="round"></path></g>
<g transform="matrix(1, 0, 0, 1, 0, 0)"><path d="M 693,432.3 C 697.8,432.3 702.12,432.3 706.15,432.3 C 710.18,432.3 713.93,432.3 717.58,432.3 C 721.22,432.3 724.78,432.3 728.42,432.3 C 732.07,432.3 735.82,432.3 739.85,432.3 C 743.88,432.3 748.2,432.3 753,432.3 " stroke="#B5B3D6" fill="none" stroke-width="5" stroke-dasharray="" stroke-dashoffset="0" stroke-linecap="round"></path></g>
<g transform="matrix(1, 0, 0, 1, 0, 0)"><path d="M 710,677.3 C 714.8,677.3 719.12,677.3 723.15,677.3 C 727.18,677.3 730.93,677.3 734.58,677.3 C 738.22,677.3 741.78,677.3 745.42,677.3 C 749.07,677.3 752.82,677.3 756.85,677.3 C 760.88,677.3 765.2,677.3 770,677.3 " stroke="#6BBFC4" fill="none" stroke-width="5" stroke-dasharray="" stroke-dashoffset="0" stroke-linecap="round"></path></g>
<g transform="matrix(1, 0, 0, 1, 0, 0)"><path d="M 732,922.3 C 736.8,922.3 741.12,922.3 745.15,922.3 C 749.18,922.3 752.93,922.3 756.58,922.3 C 760.22,922.3 763.78,922.3 767.42,922.3 C 771.07,922.3 774.82,922.3 778.85,922.3 C 782.88,922.3 787.2,922.3 792,922.3 " stroke="#E89161" fill="none" stroke-width="5" stroke-dasharray="" stroke-dashoffset="0" stroke-linecap="round"></path></g>
<g transform="matrix(1, 0, 0, 1, 0, 0)"><path d="M 709,1168.3 C 713.8,1168.3 718.12,1168.3 722.15,1168.3 C 726.18,1168.3 729.93,1168.3 733.58,1168.3 C 737.22,1168.3 740.78,1168.3 744.42,1168.3 C 748.07,1168.3 751.82,1168.3 755.85,1168.3 C 759.88,1168.3 764.2,1168.3 769,1168.3 " stroke="#F7D17D" fill="none" stroke-width="5" stroke-dasharray="" stroke-dashoffset="0" stroke-linecap="round"></path></g>
<g transform="matrix(1, 0, 0, 1, 0, 0)"><path d="M 442,677.3 L 442,722.3 C 442,727.82 437.52,732.3 432,732.3 L 90,732.3 C 84.48,732.3 80,727.82 80,722.3 L 80,632.3 C 80,626.78 84.48,622.3 90,622.3 L 432,622.3 C 437.52,622.3 442,626.78 442,632.3 Z " stroke="none" fill="#FFFFFF"></path><path d="M 442,677.3 L 442,722.3 C 442,727.82 437.52,732.3 432,732.3 L 90,732.3 C 84.48,732.3 80,727.82 80,722.3 L 80,632.3 C 80,626.78 84.48,622.3 90,622.3 L 432,622.3 C 437.52,622.3 442,626.78 442,632.3 Z " stroke="#FFFFFF" fill="none" stroke-width="7" stroke-dasharray="" stroke-dashoffset="0" stroke-linecap="round" stroke-linejoin="round" stroke-miterlimit="4"></path></g>
<g transform="matrix(1, 0, 0, 1, 0, 0)"><g transform="translate(99 666.3)"><text fill="#1A1A1A" x="21.74" y="0" font-family="AvenirNext-Bold" font-size="30" font-weight="bold">THE FIVE SHIFTS TO </text><text fill="#1A1A1A" x="55.4" y="41" font-family="AvenirNext-Bold" font-size="30" font-weight="bold">BREAKING 500</text></g></g>
<g transform="matrix(1, 0, 0, 1, 0, 0)"><path d="M 715,186.8 L 715,204.3 C 715,209.82 710.52,214.3 705,214.3 L 512,214.3 C 506.48,214.3 502,209.82 502,204.3 L 502,169.3 C 502,163.78 506.48,159.3 512,159.3 L 705,159.3 C 710.52,159.3 715,163.78 715,169.3 Z " stroke="none" fill="#EDB8D1"></path><path d="M 715,186.8 L 715,204.3 C 715,209.82 710.52,214.3 705,214.3 L 512,214.3 C 506.48,214.3 502,209.82 502,204.3 L 502,169.3 C 502,163.78 506.48,159.3 512,159.3 L 705,159.3 C 710.52,159.3 715,163.78 715,169.3 Z " stroke="#EDB8D1" fill="none" stroke-width="6" stroke-dasharray="" stroke-dashoffset="0" stroke-linecap="round" stroke-linejoin="round" stroke-miterlimit="4"></path></g>
<g transform="matrix(1, 0, 0, 1, 0, 0)"><g transform="translate(521 193.3)"><text fill="#000000" x="5" y="0" font-family="AvenirNext-Bold" font-size="20" font-weight="bold">HEALTHY PASTOR</text></g></g>
<g transform="matrix(1, 0, 0, 1, 0, 0)"><path d="M 957,105.8 L 957,121.3 C 957,126.82 952.52,131.3 947,131.3 L 785,131.3 C 779.48,131.3 775,126.82 775,121.3 L 775,90.3 C 775,84.78 779.48,80.3 785,80.3 L 947,80.3 C 952.52,80.3 957,84.78 957,90.3 Z " stroke="none" fill="#EDB8D1"></path><path d="M 957,105.8 L 957,121.3 C 957,126.82 952.52,131.3 947,131.3 L 785,131.3 C 779.48,131.3 775,126.82 775,121.3 L 775,90.3 C 775,84.78 779.48,80.3 785,80.3 L 947,80.3 C 952.52,80.3 957,84.78 957,90.3 Z " stroke="#EDB8D1" fill="none" stroke-width="5" stroke-dasharray="" stroke-dashoffset="0" stroke-linecap="round" stroke-linejoin="round" stroke-miterlimit="4"></path></g>
<g transform="matrix(1, 0, 0, 1, 0, 0)"><g transform="translate(794 111.3)"><text fill="#000000" x="5" y="0" font-family="AvenirNext-Medium" font-size="17">has a growth team</text></g></g>
<g transform="matrix(1, 0, 0, 1, 0, 0)"><path d="M 952,186.8 L 952,202.3 C 952,207.82 947.52,212.3 942,212.3 L 785,212.3 C 779.48,212.3 775,207.82 775,202.3 L 775,171.3 C 775,165.78 779.48,161.3 785,161.3 L 942,161.3 C 947.52,161.3 952,165.78 952,171.3 Z " stroke="none" fill="#EDB8D1"></path><path d="M 952,186.8 L 952,202.3 C 952,207.82 947.52,212.3 942,212.3 L 785,212.3 C 779.48,212.3 775,207.82 775,202.3 L 775,171.3 C 775,165.78 779.48,161.3 785,161.3 L 942,161.3 C 947.52,161.3 952,165.78 952,171.3 Z " stroke="#EDB8D1" fill="none" stroke-width="5" stroke-dasharray="" stroke-dashoffset="0" stroke-linecap="round" stroke-linejoin="round" stroke-miterlimit="4"></path></g>
<g transform="matrix(1, 0, 0, 1, 0, 0)"><g transform="translate(794 192.3)"><text fill="#000000" x="5" y="0" font-family="AvenirNext-Medium" font-size="17">has an ideal week</text></g></g>
<g transform="matrix(1, 0, 0, 1, 0, 0)"><path d="M 904,267.8 L 904,283.3 C 904,288.82 899.52,293.3 894,293.3 L 785,293.3 C 779.48,293.3 775,288.82 775,283.3 L 775,252.3 C 775,246.78 779.48,242.3 785,242.3 L 894,242.3 C 899.52,242.3 904,246.78 904,252.3 Z " stroke="none" fill="#EDB8D1"></path><path d="M 904,267.8 L 904,283.3 C 904,288.82 899.52,293.3 894,293.3 L 785,293.3 C 779.48,293.3 775,288.82 775,283.3 L 775,252.3 C 775,246.78 779.48,242.3 785,242.3 L 894,242.3 C 899.52,242.3 904,246.78 904,252.3 Z " stroke="#EDB8D1" fill="none" stroke-width="5" stroke-dasharray="" stroke-dashoffset="0" stroke-linecap="round" stroke-linejoin="round" stroke-miterlimit="4"></path></g>
<g transform="matrix(1, 0, 0, 1, 0, 0)"><g transform="translate(794 273.3)"><text fill="#000000" x="5" y="0" font-family="AvenirNext-Medium" font-size="17">has a driver</text></g></g>
<g transform="matrix(1, 0, 0, 1, 0, 0)"><path d="M 693,431.8 L 693,449.3 C 693,454.82 688.52,459.3 683,459.3 L 512,459.3 C 506.48,459.3 502,454.82 502,449.3 L 502,414.3 C 502,408.78 506.48,404.3 512,404.3 L 683,404.3 C 688.52,404.3 693,408.78 693,414.3 Z " stroke="none" fill="#B5B3D6"></path><path d="M 693,431.8 L 693,449.3 C 693,454.82 688.52,459.3 683,459.3 L 512,459.3 C 506.48,459.3 502,454.82 502,449.3 L 502,414.3 C 502,408.78 506.48,404.3 512,404.3 L 683,404.3 C 688.52,404.3 693,408.78 693,414.3 Z " stroke="#B5B3D6" fill="none" stroke-width="6" stroke-dasharray="" stroke-dashoffset="0" stroke-linecap="round" stroke-linejoin="round" stroke-miterlimit="4"></path></g>
<g transform="matrix(1, 0, 0, 1, 0, 0)"><g transform="translate(521 438.3)"><text fill="#000000" x="5" y="0" font-family="AvenirNext-Bold" font-size="20" font-weight="bold">HEALTHY TEAM</text></g></g>
<g transform="matrix(1, 0, 0, 1, 0, 0)"><path d="M 1043,350.8 L 1043,366.3 C 1043,371.82 1038.52,376.3 1033,376.3 L 763,376.3 C 757.48,376.3 753,371.82 753,366.3 L 753,335.3 C 753,329.78 757.48,325.3 763,325.3 L 1033,325.3 C 1038.52,325.3 1043,329.78 1043,335.3 Z " stroke="none" fill="#B5B3D6"></path><path d="M 1043,350.8 L 1043,366.3 C 1043,371.82 1038.52,376.3 1033,376.3 L 763,376.3 C 757.48,376.3 753,371.82 753,366.3 L 753,335.3 C 753,329.78 757.48,325.3 763,325.3 L 1033,325.3 C 1038.52,325.3 1043,329.78 1043,335.3 Z " stroke="#B5B3D6" fill="none" stroke-width="5" stroke-dasharray="" stroke-dashoffset="0" stroke-linecap="round" stroke-linejoin="round" stroke-miterlimit="4"></path></g>
<g transform="matrix(1, 0, 0, 1, 0, 0)"><g transform="translate(772 356.3)"><text fill="#000000" x="5" y="0" font-family="AvenirNext-Medium" font-size="17">Have a healthy volunteer culture</text></g></g>
<g transform="matrix(1, 0, 0, 1, 0, 0)"><path d="M 1012,431.8 L 1012,447.3 C 1012,452.82 1007.52,457.3 1002,457.3 L 763,457.3 C 757.48,457.3 753,452.82 753,447.3 L 753,416.3 C 753,410.78 757.48,406.3 763,406.3 L 1002,406.3 C 1007.52,406.3 1012,410.78 1012,416.3 Z " stroke="none" fill="#B5B3D6"></path><path d="M 1012,431.8 L 1012,447.3 C 1012,452.82 1007.52,457.3 1002,457.3 L 763,457.3 C 757.48,457.3 753,452.82 753,447.3 L 753,416.3 C 753,410.78 757.48,406.3 763,406.3 L 1002,406.3 C 1007.52,406.3 1012,410.78 1012,416.3 Z " stroke="#B5B3D6" fill="none" stroke-width="5" stroke-dasharray="" stroke-dashoffset="0" stroke-linecap="round" stroke-linejoin="round" stroke-miterlimit="4"></path></g>
<g transform="matrix(1, 0, 0, 1, 0, 0)"><g transform="translate(772 437.3)"><text fill="#000000" x="5" y="0" font-family="AvenirNext-Medium" font-size="17">is able to receive delegation</text></g></g>
<g transform="matrix(1, 0, 0, 1, 0, 0)"><path d="M 1027,512.8 L 1027,528.3 C 1027,533.82 1022.52,538.3 1017,538.3 L 763,538.3 C 757.48,538.3 753,533.82 753,528.3 L 753,497.3 C 753,491.78 757.48,487.3 763,487.3 L 1017,487.3 C 1022.52,487.3 1027,491.78 1027,497.3 Z " stroke="none" fill="#B5B3D6"></path><path d="M 1027,512.8 L 1027,528.3 C 1027,533.82 1022.52,538.3 1017,538.3 L 763,538.3 C 757.48,538.3 753,533.82 753,528.3 L 753,497.3 C 753,491.78 757.48,487.3 763,487.3 L 1017,487.3 C 1022.52,487.3 1027,491.78 1027,497.3 Z " stroke="#B5B3D6" fill="none" stroke-width="5" stroke-dasharray="" stroke-dashoffset="0" stroke-linecap="round" stroke-linejoin="round" stroke-miterlimit="4"></path></g>
<g transform="matrix(1, 0, 0, 1, 0, 0)"><g transform="translate(772 518.3)"><text fill="#000000" x="5" y="0" font-family="AvenirNext-Medium" font-size="17">meets + exceeds expectations</text></g></g>
<g transform="matrix(1, 0, 0, 1, 0, 0)"><path d="M 710,676.8 L 710,694.3 C 710,699.82 705.52,704.3 700,704.3 L 512,704.3 C 506.48,704.3 502,699.82 502,694.3 L 502,659.3 C 502,653.78 506.48,649.3 512,649.3 L 700,649.3 C 705.52,649.3 710,653.78 710,659.3 Z " stroke="none" fill="#6BBFC4"></path><path d="M 710,676.8 L 710,694.3 C 710,699.82 705.52,704.3 700,704.3 L 512,704.3 C 506.48,704.3 502,699.82 502,694.3 L 502,659.3 C 502,653.78 506.48,649.3 512,649.3 L 700,649.3 C 705.52,649.3 710,653.78 710,659.3 Z " stroke="#6BBFC4" fill="none" stroke-width="6" stroke-dasharray="" stroke-dashoffset="0" stroke-linecap="round" stroke-linejoin="round" stroke-miterlimit="4"></path></g>
<g transform="matrix(1, 0, 0, 1, 0, 0)"><g transform="translate(521 683.3)"><text fill="#000000" x="5" y="0" font-family="AvenirNext-Bold" font-size="20" font-weight="bold">HEALTHY BOARD</text></g></g>
<g transform="matrix(1, 0, 0, 1, 0, 0)"><path d="M 992,595.8 L 992,611.3 C 992,616.82 987.52,621.3 982,621.3 L 780,621.3 C 774.48,621.3 770,616.82 770,611.3 L 770,580.3 C 770,574.78 774.48,570.3 780,570.3 L 982,570.3 C 987.52,570.3 992,574.78 992,580.3 Z " stroke="none" fill="#6BBFC4"></path><path d="M 992,595.8 L 992,611.3 C 992,616.82 987.52,621.3 982,621.3 L 780,621.3 C 774.48,621.3 770,616.82 770,611.3 L 770,580.3 C 770,574.78 774.48,570.3 780,570.3 L 982,570.3 C 987.52,570.3 992,574.78 992,580.3 Z " stroke="#6BBFC4" fill="none" stroke-width="5" stroke-dasharray="" stroke-dashoffset="0" stroke-linecap="round" stroke-linejoin="round" stroke-miterlimit="4"></path></g>
<g transform="matrix(1, 0, 0, 1, 0, 0)"><g transform="translate(789 601.3)"><text fill="#000000" x="5" y="0" font-family="AvenirNext-Medium" font-size="17">knows their role + mine</text></g></g>
<g transform="matrix(1, 0, 0, 1, 0, 0)"><path d="M 1062,676.8 L 1062,692.3 C 1062,697.82 1057.52,702.3 1052,702.3 L 780,702.3 C 774.48,702.3 770,697.82 770,692.3 L 770,661.3 C 770,655.78 774.48,651.3 780,651.3 L 1052,651.3 C 1057.52,651.3 1062,655.78 1062,661.3 Z " stroke="none" fill="#6BBFC4"></path><path d="M 1062,676.8 L 1062,692.3 C 1062,697.82 1057.52,702.3 1052,702.3 L 780,702.3 C 774.48,702.3 770,697.82 770,692.3 L 770,661.3 C 770,655.78 774.48,651.3 780,651.3 L 1052,651.3 C 1057.52,651.3 1062,655.78 1062,661.3 Z " stroke="#6BBFC4" fill="none" stroke-width="5" stroke-dasharray="" stroke-dashoffset="0" stroke-linecap="round" stroke-linejoin="round" stroke-miterlimit="4"></path></g>
<g transform="matrix(1, 0, 0, 1, 0, 0)"><g transform="translate(789 682.3)"><text fill="#000000" x="5" y="0" font-family="AvenirNext-Medium" font-size="17">knows how to hear God’s voice</text></g></g>
<g transform="matrix(1, 0, 0, 1, 0, 0)"><path d="M 1041,757.8 L 1041,773.3 C 1041,778.82 1036.52,783.3 1031,783.3 L 780,783.3 C 774.48,783.3 770,778.82 770,773.3 L 770,742.3 C 770,736.78 774.48,732.3 780,732.3 L 1031,732.3 C 1036.52,732.3 1041,736.78 1041,742.3 Z " stroke="none" fill="#6BBFC4"></path><path d="M 1041,757.8 L 1041,773.3 C 1041,778.82 1036.52,783.3 1031,783.3 L 780,783.3 C 774.48,783.3 770,778.82 770,773.3 L 770,742.3 C 770,736.78 774.48,732.3 780,732.3 L 1031,732.3 C 1036.52,732.3 1041,736.78 1041,742.3 Z " stroke="#6BBFC4" fill="none" stroke-width="5" stroke-dasharray="" stroke-dashoffset="0" stroke-linecap="round" stroke-linejoin="round" stroke-miterlimit="4"></path></g>
<g transform="matrix(1, 0, 0, 1, 0, 0)"><g transform="translate(789 763.3)"><text fill="#000000" x="5" y="0" font-family="AvenirNext-Medium" font-size="17">has a clear meeting agenda</text></g></g>
<g transform="matrix(1, 0, 0, 1, 0, 0)"><path d="M 732,922.8 L 732,940.3 C 732,945.82 727.52,950.3 722,950.3 L 512,950.3 C 506.48,950.3 502,945.82 502,940.3 L 502,905.3 C 502,899.78 506.48,895.3 512,895.3 L 722,895.3 C 727.52,895.3 732,899.78 732,905.3 Z " stroke="none" fill="#E89161"></path><path d="M 732,922.8 L 732,940.3 C 732,945.82 727.52,950.3 722,950.3 L 512,950.3 C 506.48,950.3 502,945.82 502,940.3 L 502,905.3 C 502,899.78 506.48,895.3 512,895.3 L 722,895.3 C 727.52,895.3 732,899.78 732,905.3 Z " stroke="#E89161" fill="none" stroke-width="6" stroke-dasharray="" stroke-dashoffset="0" stroke-linecap="round" stroke-linejoin="round" stroke-miterlimit="4"></path></g>
<g transform="matrix(1, 0, 0, 1, 0, 0)"><g transform="translate(521 929.3)"><text fill="#000000" x="5" y="0" font-family="AvenirNext-Bold" font-size="20" font-weight="bold">HEALTHY SUNDAYS</text></g></g>
<g transform="matrix(1, 0, 0, 1, 0, 0)"><path d="M 1074,841.8 L 1074,857.3 C 1074,862.82 1069.52,867.3 1064,867.3 L 802,867.3 C 796.48,867.3 792,862.82 792,857.3 L 792,826.3 C 792,820.78 796.48,816.3 802,816.3 L 1064,816.3 C 1069.52,816.3 1074,820.78 1074,826.3 Z " stroke="none" fill="#E89161"></path><path d="M 1074,841.8 L 1074,857.3 C 1074,862.82 1069.52,867.3 1064,867.3 L 802,867.3 C 796.48,867.3 792,862.82 792,857.3 L 792,826.3 C 792,820.78 796.48,816.3 802,816.3 L 1064,816.3 C 1069.52,816.3 1074,820.78 1074,826.3 Z " stroke="#E89161" fill="none" stroke-width="5" stroke-dasharray="" stroke-dashoffset="0" stroke-linecap="round" stroke-linejoin="round" stroke-miterlimit="4"></path></g>
<g transform="matrix(1, 0, 0, 1, 0, 0)"><g transform="translate(811 847.3)"><text fill="#000000" x="5" y="0" font-family="AvenirNext-Medium" font-size="17">evaluate + improve every week</text></g></g>
<g transform="matrix(1, 0, 0, 1, 0, 0)"><path d="M 1026,922.8 L 1026,938.3 C 1026,943.82 1021.52,948.3 1016,948.3 L 802,948.3 C 796.48,948.3 792,943.82 792,938.3 L 792,907.3 C 792,901.78 796.48,897.3 802,897.3 L 1016,897.3 C 1021.52,897.3 1026,901.78 1026,907.3 Z " stroke="none" fill="#E89161"></path><path d="M 1026,922.8 L 1026,938.3 C 1026,943.82 1021.52,948.3 1016,948.3 L 802,948.3 C 796.48,948.3 792,943.82 792,938.3 L 792,907.3 C 792,901.78 796.48,897.3 802,897.3 L 1016,897.3 C 1021.52,897.3 1026,901.78 1026,907.3 Z " stroke="#E89161" fill="none" stroke-width="5" stroke-dasharray="" stroke-dashoffset="0" stroke-linecap="round" stroke-linejoin="round" stroke-miterlimit="4"></path></g>
<g transform="matrix(1, 0, 0, 1, 0, 0)"><g transform="translate(811 928.3)"><text fill="#000000" x="5" y="0" font-family="AvenirNext-Medium" font-size="17">first time guest sequence</text></g></g>
<g transform="matrix(1, 0, 0, 1, 0, 0)"><path d="M 980,1003.8 L 980,1019.3 C 980,1024.82 975.52,1029.3 970,1029.3 L 802,1029.3 C 796.48,1029.3 792,1024.82 792,1019.3 L 792,988.3 C 792,982.78 796.48,978.3 802,978.3 L 970,978.3 C 975.52,978.3 980,982.78 980,988.3 Z " stroke="none" fill="#E89161"></path><path d="M 980,1003.8 L 980,1019.3 C 980,1024.82 975.52,1029.3 970,1029.3 L 802,1029.3 C 796.48,1029.3 792,1024.82 792,1019.3 L 792,988.3 C 792,982.78 796.48,978.3 802,978.3 L 970,978.3 C 975.52,978.3 980,982.78 980,988.3 Z " stroke="#E89161" fill="none" stroke-width="5" stroke-dasharray="" stroke-dashoffset="0" stroke-linecap="round" stroke-linejoin="round" stroke-miterlimit="4"></path></g>
<g transform="matrix(1, 0, 0, 1, 0, 0)"><g transform="translate(811 1009.3)"><text fill="#000000" x="5" y="0" font-family="AvenirNext-Medium" font-size="17">salvation sequence</text></g></g>
<g transform="matrix(1, 0, 0, 1, 0, 0)"><path d="M 709,1167.8 L 709,1185.3 C 709,1190.82 704.52,1195.3 699,1195.3 L 512,1195.3 C 506.48,1195.3 502,1190.82 502,1185.3 L 502,1150.3 C 502,1144.78 506.48,1140.3 512,1140.3 L 699,1140.3 C 704.52,1140.3 709,1144.78 709,1150.3 Z " stroke="none" fill="#F7D17D"></path><path d="M 709,1167.8 L 709,1185.3 C 709,1190.82 704.52,1195.3 699,1195.3 L 512,1195.3 C 506.48,1195.3 502,1190.82 502,1185.3 L 502,1150.3 C 502,1144.78 506.48,1140.3 512,1140.3 L 699,1140.3 C 704.52,1140.3 709,1144.78 709,1150.3 Z " stroke="#F7D17D" fill="none" stroke-width="6" stroke-dasharray="" stroke-dashoffset="0" stroke-linecap="round" stroke-linejoin="round" stroke-miterlimit="4"></path></g>
<g transform="matrix(1, 0, 0, 1, 0, 0)"><g transform="translate(521 1174.3)"><text fill="#000000" x="5" y="0" font-family="AvenirNext-Bold" font-size="20" font-weight="bold">HEALTHY GIVING</text></g></g>
<g transform="matrix(1, 0, 0, 1, 0, 0)"><path d="M 959,1086.8 L 959,1102.3 C 959,1107.82 954.52,1112.3 949,1112.3 L 779,1112.3 C 773.48,1112.3 769,1107.82 769,1102.3 L 769,1071.3 C 769,1065.78 773.48,1061.3 779,1061.3 L 949,1061.3 C 954.52,1061.3 959,1065.78 959,1071.3 Z " stroke="none" fill="#F7D17D"></path><path d="M 959,1086.8 L 959,1102.3 C 959,1107.82 954.52,1112.3 949,1112.3 L 779,1112.3 C 773.48,1112.3 769,1107.82 769,1102.3 L 769,1071.3 C 769,1065.78 773.48,1061.3 779,1061.3 L 949,1061.3 C 954.52,1061.3 959,1065.78 959,1071.3 Z " stroke="#F7D17D" fill="none" stroke-width="5" stroke-dasharray="" stroke-dashoffset="0" stroke-linecap="round" stroke-linejoin="round" stroke-miterlimit="4"></path></g>
<g transform="matrix(1, 0, 0, 1, 0, 0)"><g transform="translate(788 1092.3)"><text fill="#000000" x="5" y="0" font-family="AvenirNext-Medium" font-size="17">annual vision series</text></g></g>
<g transform="matrix(1, 0, 0, 1, 0, 0)"><path d="M 927,1167.8 L 927,1183.3 C 927,1188.82 922.52,1193.3 917,1193.3 L 779,1193.3 C 773.48,1193.3 769,1188.82 769,1183.3 L 769,1152.3 C 769,1146.78 773.48,1142.3 779,1142.3 L 917,1142.3 C 922.52,1142.3 927,1146.78 927,1152.3 Z " stroke="none" fill="#F7D17D"></path><path d="M 927,1167.8 L 927,1183.3 C 927,1188.82 922.52,1193.3 917,1193.3 L 779,1193.3 C 773.48,1193.3 769,1188.82 769,1183.3 L 769,1152.3 C 769,1146.78 773.48,1142.3 779,1142.3 L 917,1142.3 C 922.52,1142.3 927,1146.78 927,1152.3 Z " stroke="#F7D17D" fill="none" stroke-width="5" stroke-dasharray="" stroke-dashoffset="0" stroke-linecap="round" stroke-linejoin="round" stroke-miterlimit="4"></path></g>
<g transform="matrix(1, 0, 0, 1, 0, 0)"><g transform="translate(788 1173.3)"><text fill="#000000" x="5" y="0" font-family="AvenirNext-Medium" font-size="17">monthly stories</text></g></g>
<g transform="matrix(1, 0, 0, 1, 0, 0)"><path d="M 928,1248.8 L 928,1264.3 C 928,1269.82 923.52,1274.3 918,1274.3 L 779,1274.3 C 773.48,1274.3 769,1269.82 769,1264.3 L 769,1233.3 C 769,1227.78 773.48,1223.3 779,1223.3 L 918,1223.3 C 923.52,1223.3 928,1227.78 928,1233.3 Z " stroke="none" fill="#F7D17D"></path><path d="M 928,1248.8 L 928,1264.3 C 928,1269.82 923.52,1274.3 918,1274.3 L 779,1274.3 C 773.48,1274.3 769,1269.82 769,1264.3 L 769,1233.3 C 769,1227.78 773.48,1223.3 779,1223.3 L 918,1223.3 C 923.52,1223.3 928,1227.78 928,1233.3 Z " stroke="#F7D17D" fill="none" stroke-width="5" stroke-dasharray="" stroke-dashoffset="0" stroke-linecap="round" stroke-linejoin="round" stroke-miterlimit="4"></path></g>
<g transform="matrix(1, 0, 0, 1, 0, 0)"><g transform="translate(788 1254.3)"><text fill="#000000" x="5" y="0" font-family="AvenirNext-Medium" font-size="17">weekly offering</text></g></g>
<g transform="matrix(1, 0, 0, 1, 0, 0)"></g>
<g transform="matrix(1, 0, 0, 1, 0, 0)"></g>
</svg>